<svg width="7" height="12" viewBox="0 0 7 12" fill="none" xmlns="http://www.w3.org/2000/svg">
<path d="M1.49997 12.0001C1.43417 12.0005 1.36894 11.9879 1.30802 11.963C1.2471 11.9381 1.19169 11.9014 1.14497 11.8551C1.09811 11.8086 1.06091 11.7533 1.03552 11.6924C1.01014 11.6315 0.99707 11.5661 0.99707 11.5001C0.99707 11.4341 1.01014 11.3687 1.03552 11.3078C1.06091 11.2469 1.09811 11.1916 1.14497 11.1451L5.22997 7.06009C5.51087 6.77884 5.66865 6.39759 5.66865 6.00009C5.66865 5.60259 5.51087 5.22134 5.22997 4.94009L1.14497 0.855093C1.05082 0.760941 0.997924 0.633244 0.997924 0.500093C0.997924 0.366942 1.05082 0.239245 1.14497 0.145093C1.23912 0.0509408 1.36682 -0.00195312 1.49997 -0.00195312C1.63312 -0.00195313 1.76082 0.0509408 1.85497 0.145093L5.93997 4.23009C6.17279 4.46232 6.3575 4.7382 6.48353 5.04192C6.60956 5.34565 6.67444 5.67126 6.67444 6.00009C6.67444 6.32893 6.60956 6.65453 6.48353 6.95826C6.3575 7.26199 6.17279 7.53786 5.93997 7.77009L1.85497 11.8551C1.80825 11.9014 1.75284 11.9381 1.69192 11.963C1.631 11.9879 1.56577 12.0005 1.49997 12.0001Z" fill="black"/>
</svg>
