<svg width="25" height="23" viewBox="0 0 25 23" fill="none" xmlns="http://www.w3.org/2000/svg">
<path d="M18.2293 0.996094C17.0564 1.01434 15.909 1.34177 14.903 1.94533C13.8971 2.54889 13.0682 3.40721 12.5002 4.43359C11.9321 3.40721 11.1032 2.54889 10.0973 1.94533C9.09135 1.34177 7.94396 1.01434 6.77099 0.996094C4.90114 1.07733 3.13944 1.89532 1.87077 3.27134C0.602097 4.64736 -0.0704135 6.46956 0.000160004 8.33984C0.000160004 13.0763 4.98558 18.2492 9.16683 21.7565C10.1004 22.541 11.2807 22.9711 12.5002 22.9711C13.7196 22.9711 14.8999 22.541 15.8335 21.7565C20.0147 18.2492 25.0002 13.0763 25.0002 8.33984C25.0707 6.46956 24.3982 4.64736 23.1296 3.27134C21.8609 1.89532 20.0992 1.07733 18.2293 0.996094ZM14.495 20.1628C13.9366 20.6329 13.2301 20.8908 12.5002 20.8908C11.7702 20.8908 11.0637 20.6329 10.5054 20.1628C5.15329 15.6721 2.08349 11.3638 2.08349 8.33984C2.01229 7.02184 2.46512 5.72915 3.34325 4.7437C4.22137 3.75825 5.45353 3.16 6.77099 3.07943C8.08846 3.16 9.32062 3.75825 10.1987 4.7437C11.0769 5.72915 11.5297 7.02184 11.4585 8.33984C11.4585 8.61611 11.5682 8.88106 11.7636 9.07641C11.9589 9.27176 12.2239 9.38151 12.5002 9.38151C12.7764 9.38151 13.0414 9.27176 13.2367 9.07641C13.4321 8.88106 13.5418 8.61611 13.5418 8.33984C13.4706 7.02184 13.9235 5.72915 14.8016 4.7437C15.6797 3.75825 16.9119 3.16 18.2293 3.07943C19.5468 3.16 20.779 3.75825 21.6571 4.7437C22.5352 5.72915 22.988 7.02184 22.9168 8.33984C22.9168 11.3638 19.847 15.6721 14.495 20.1586V20.1628Z" fill="black"/>
</svg>
