<svg width="25" height="25" viewBox="0 0 25 25" fill="none" xmlns="http://www.w3.org/2000/svg">
<g clip-path="url(#clip0_172_941)">
<path d="M23.9583 11.459H1.04167C0.46637 11.459 0 11.9254 0 12.5007C0 13.0759 0.46637 13.5423 1.04167 13.5423H23.9583C24.5336 13.5423 25 13.0759 25 12.5007C25 11.9254 24.5336 11.459 23.9583 11.459Z" fill="black"/>
<path d="M23.9583 4.16602H1.04167C0.46637 4.16602 0 4.63239 0 5.20768C0 5.78298 0.46637 6.24935 1.04167 6.24935H23.9583C24.5336 6.24935 25 5.78298 25 5.20768C25 4.63239 24.5336 4.16602 23.9583 4.16602Z" fill="black"/>
<path d="M23.9583 18.75H1.04167C0.46637 18.75 0 19.2164 0 19.7917C0 20.367 0.46637 20.8333 1.04167 20.8333H23.9583C24.5336 20.8333 25 20.367 25 19.7917C25 19.2164 24.5336 18.75 23.9583 18.75Z" fill="black"/>
</g>
<defs>
<clipPath id="clip0_172_941">
<rect width="25" height="25" fill="white"/>
</clipPath>
</defs>
</svg>
