<svg width="25" height="25" viewBox="0 0 25 25" fill="none" xmlns="http://www.w3.org/2000/svg">
<g clip-path="url(#clip0_172_1454)">
<path d="M24.6949 23.222L18.4772 17.0043C20.1716 14.932 21.0047 12.2877 20.8041 9.61843C20.6036 6.94913 19.3847 4.45902 17.3997 2.66318C15.4147 0.867337 12.8153 -0.0968481 10.1393 -0.02994C7.46336 0.0369681 4.91545 1.12985 3.02265 3.02265C1.12985 4.91545 0.0369681 7.46336 -0.02994 10.1393C-0.0968481 12.8153 0.867337 15.4147 2.66318 17.3997C4.45902 19.3847 6.94913 20.6036 9.61843 20.8041C12.2877 21.0047 14.932 20.1716 17.0043 18.4772L23.222 24.6949C23.4185 24.8847 23.6816 24.9897 23.9547 24.9873C24.2278 24.9849 24.4891 24.8754 24.6822 24.6822C24.8754 24.4891 24.9849 24.2278 24.9873 23.9547C24.9897 23.6816 24.8847 23.4185 24.6949 23.222ZM10.4168 18.7501C8.76863 18.7501 7.15746 18.2614 5.78705 17.3457C4.41664 16.43 3.34854 15.1286 2.71781 13.6058C2.08708 12.0831 1.92205 10.4076 2.24359 8.79105C2.56514 7.17454 3.35881 5.68969 4.52425 4.52425C5.68969 3.35881 7.17454 2.56514 8.79105 2.24359C10.4076 1.92205 12.0831 2.08708 13.6058 2.71781C15.1286 3.34854 16.43 4.41664 17.3457 5.78705C18.2614 7.15746 18.7501 8.76863 18.7501 10.4168C18.7477 12.6262 17.8689 14.7444 16.3066 16.3066C14.7444 17.8689 12.6262 18.7477 10.4168 18.7501Z" fill="black"/>
</g>
<defs>
<clipPath id="clip0_172_1454">
<rect width="25" height="25" fill="white"/>
</clipPath>
</defs>
</svg>
