<svg width="312" height="81" viewBox="0 0 312 81" fill="none" xmlns="http://www.w3.org/2000/svg">
<path d="M29.7224 41.0932L30.4227 39.5465C33.619 39.5821 36.2227 40.0621 38.2339 40.9865C40.281 41.911 41.7714 43.1554 42.7051 44.7199C43.6748 46.2843 44.1596 48.0443 44.1596 49.9999C44.1596 52.1332 43.6389 54.0176 42.5974 55.6532C41.5918 57.2888 40.1014 58.5865 38.1261 59.5465C36.1509 60.471 33.6908 60.9332 30.7459 60.9332H3.81055L6.98891 40.3999L3.81055 20.9332H29.7762C33.5112 20.9332 36.3843 21.8043 38.3955 23.5465C40.4426 25.2532 41.4661 27.6176 41.4661 30.6399C41.4661 32.2399 41.0711 33.8043 40.281 35.3332C39.5268 36.8265 38.2878 38.1065 36.5639 39.1732C34.876 40.2043 32.5954 40.8443 29.7224 41.0932ZM10.9753 58.9599L8.22793 55.2799H29.9378C32.1645 55.2799 33.8883 54.7821 35.1094 53.7865C36.3664 52.7554 36.9949 51.2976 36.9949 49.4132C36.9949 47.4221 36.2586 45.8754 34.7862 44.7732C33.3496 43.671 31.2128 43.1199 28.3756 43.1199H10.8676V37.6799H27.6753C29.5787 37.6799 31.1589 37.1643 32.4159 36.1332C33.6729 35.0665 34.3013 33.5554 34.3013 31.5999C34.3013 30.1421 33.7806 28.951 32.7391 28.0265C31.6976 27.0665 30.1892 26.5865 28.214 26.5865H8.22793L10.9753 22.9065L13.8305 40.3999L10.9753 58.9599ZM74.0944 41.0932L74.7947 39.5465C77.991 39.5821 80.5947 40.0621 82.6059 40.9865C84.653 41.911 86.1434 43.1554 87.0772 44.7199C88.0468 46.2843 88.5317 48.0443 88.5317 49.9999C88.5317 52.1332 88.0109 54.0176 86.9694 55.6532C85.9638 57.2888 84.4734 58.5865 82.4982 59.5465C80.5229 60.471 78.0628 60.9332 75.1179 60.9332H48.1826L51.361 40.3999L48.1826 20.9332H74.1482C77.8833 20.9332 80.7564 21.8043 82.7675 23.5465C84.8146 25.2532 85.8381 27.6176 85.8381 30.6399C85.8381 32.2399 85.4431 33.8043 84.653 35.3332C83.8988 36.8265 82.6598 38.1065 80.9359 39.1732C79.248 40.2043 76.9675 40.8443 74.0944 41.0932ZM55.3474 58.9599L52.6 55.2799H74.3098C76.5365 55.2799 78.2604 54.7821 79.4814 53.7865C80.7384 52.7554 81.3669 51.2976 81.3669 49.4132C81.3669 47.4221 80.6307 45.8754 79.1582 44.7732C77.7216 43.671 75.5848 43.1199 72.7476 43.1199H55.2397V37.6799H72.0473C73.9507 37.6799 75.5309 37.1643 76.7879 36.1332C78.0449 35.0665 78.6734 33.5554 78.6734 31.5999C78.6734 30.1421 78.1526 28.951 77.1111 28.0265C76.0696 27.0665 74.5612 26.5865 72.586 26.5865H52.6L55.3474 22.9065L58.2026 40.3999L55.3474 58.9599ZM97.3958 51.7599V45.9465H125.624V51.7599H97.3958ZM116.143 20.9332L135.536 60.9332H127.94L110.325 23.5999H113.072L95.4565 60.9332H87.8607L107.254 20.9332H116.143ZM145.209 24.1865H152.32V60.9332H145.209V24.1865ZM128.509 20.9332H169.02V27.1199H128.509V20.9332ZM181.823 47.9199H189.042C189.257 49.5199 189.922 50.9243 191.035 52.1332C192.184 53.3421 193.692 54.2843 195.56 54.9599C197.428 55.5999 199.582 55.9199 202.024 55.9199C205.652 55.9199 208.525 55.3688 210.644 54.2665C212.763 53.1287 213.822 51.5999 213.822 49.6799C213.822 48.1154 213.212 46.9421 211.991 46.1599C210.769 45.3776 208.561 44.791 205.364 44.3999L196.637 43.2799C191.753 42.6399 188.198 41.4487 185.971 39.7065C183.78 37.9287 182.685 35.4221 182.685 32.1865C182.685 29.7332 183.421 27.6176 184.894 25.8399C186.402 24.0265 188.521 22.6399 191.25 21.6799C193.98 20.6843 197.176 20.1865 200.839 20.1865C204.467 20.1865 207.681 20.7199 210.482 21.7865C213.283 22.8532 215.51 24.3465 217.162 26.2665C218.85 28.151 219.766 30.3732 219.909 32.9332H212.691C212.511 31.511 211.901 30.2843 210.859 29.2532C209.854 28.2221 208.489 27.4221 206.765 26.8532C205.041 26.2487 203.012 25.9465 200.678 25.9465C197.374 25.9465 194.734 26.4799 192.759 27.5465C190.783 28.6132 189.796 30.071 189.796 31.9199C189.796 33.3421 190.37 34.4443 191.52 35.2265C192.705 35.9732 194.752 36.5421 197.661 36.9332L206.496 38.1599C210.123 38.6576 212.978 39.3332 215.061 40.1865C217.18 41.0043 218.688 42.1243 219.586 43.5465C220.484 44.9332 220.933 46.7288 220.933 48.9332C220.933 51.4932 220.143 53.7332 218.563 55.6532C216.982 57.5732 214.756 59.0665 211.883 60.1332C209.046 61.1643 205.724 61.6799 201.917 61.6799C198.038 61.6799 194.608 61.111 191.627 59.9732C188.683 58.7999 186.348 57.1821 184.624 55.1199C182.9 53.0576 181.967 50.6576 181.823 47.9199ZM232.878 43.7599C232.878 46.1421 233.363 48.2043 234.332 49.9465C235.302 51.6888 236.685 53.0399 238.48 53.9999C240.312 54.9243 242.485 55.3865 244.999 55.3865C247.548 55.3865 249.721 54.9243 251.517 53.9999C253.313 53.0399 254.695 51.6888 255.665 49.9465C256.635 48.2043 257.119 46.1421 257.119 43.7599V20.9332H264.23V44.0265C264.23 47.5465 263.422 50.6399 261.806 53.3065C260.19 55.9376 257.945 57.9999 255.072 59.4932C252.199 60.951 248.841 61.6799 244.999 61.6799C241.192 61.6799 237.834 60.951 234.925 59.4932C232.052 57.9999 229.807 55.9376 228.191 53.3065C226.575 50.6399 225.767 47.5465 225.767 44.0265V20.9332H232.878V43.7599ZM303.787 37.9999V43.8665H275.559V37.9999H303.787ZM280.246 40.9332L277.39 58.7999L273.997 54.8532H305.349V60.9332H270.118L273.35 40.9332L270.118 20.9332H305.08V27.0132H273.997L277.39 23.0665L280.246 40.9332Z" fill="#333333"/>
<path d="M151.074 61.2376V50.2694L155.229 46.1562H166.307V57.1245L162.153 61.2376H151.074Z" fill="white"/>
<path d="M151.074 50.2694V61.2376H162.153M151.074 50.2694H162.153M151.074 50.2694L155.229 46.1562H166.307M162.153 61.2376V50.2694M162.153 61.2376L166.307 57.1245V46.1562M162.153 50.2694L166.307 46.1562" stroke="black" stroke-linejoin="round"/>
<path d="M165.922 59.9453L168.789 49.3508L173.877 46.4424L184.579 49.2813L181.711 59.8757L176.623 62.7842L165.922 59.9453Z" fill="white"/>
<path d="M168.789 49.3508L165.922 59.9453L176.623 62.7842M168.789 49.3508L179.49 52.1897M168.789 49.3508L173.877 46.4424L184.579 49.2813M176.623 62.7842L179.49 52.1897M176.623 62.7842L181.711 59.8757L184.579 49.2813M179.49 52.1897L184.579 49.2813" stroke="black" stroke-linejoin="round"/>
</svg>
