<svg width="200" height="52" viewBox="0 0 200 52" fill="none" xmlns="http://www.w3.org/2000/svg">
<path d="M18.7458 26.105L19.1947 25.0996C21.2437 25.1227 22.9127 25.4347 24.2019 26.0356C25.5142 26.6365 26.4696 27.4454 27.0681 28.4623C27.6897 29.4792 28.0005 30.6232 28.0005 31.8943C28.0005 33.281 27.6667 34.5058 26.9991 35.569C26.3545 36.6321 25.3991 37.4756 24.1329 38.0996C22.8667 38.7005 21.2897 39.001 19.4019 39.001H2.13574L4.17315 25.6543L2.13574 13.001H18.7804C21.1746 13.001 23.0163 13.5672 24.3055 14.6996C25.6178 15.809 26.2739 17.3458 26.2739 19.3103C26.2739 20.3503 26.0207 21.3672 25.5142 22.361C25.0307 23.3316 24.2365 24.1636 23.1314 24.857C22.0494 25.5272 20.5876 25.9432 18.7458 26.105ZM6.72855 37.7183L4.9674 35.3263H18.884C20.3113 35.3263 21.4163 35.0027 22.1991 34.3556C23.0048 33.6854 23.4077 32.7378 23.4077 31.513C23.4077 30.2187 22.9358 29.2134 21.9919 28.497C21.071 27.7805 19.7012 27.4223 17.8825 27.4223H6.65948V23.8863H17.4336C18.6537 23.8863 19.6667 23.5512 20.4724 22.881C21.2782 22.1876 21.6811 21.2054 21.6811 19.9343C21.6811 18.9867 21.3473 18.2125 20.6796 17.6116C20.012 16.9876 19.0451 16.6756 17.7789 16.6756H4.9674L6.72855 14.2836L8.55876 25.6543L6.72855 37.7183ZM47.1894 26.105L47.6384 25.0996C49.6873 25.1227 51.3563 25.4347 52.6455 26.0356C53.9578 26.6365 54.9132 27.4454 55.5117 28.4623C56.1333 29.4792 56.4441 30.6232 56.4441 31.8943C56.4441 33.281 56.1103 34.5058 55.4427 35.569C54.7981 36.6321 53.8427 37.4756 52.5765 38.0996C51.3103 38.7005 49.7333 39.001 47.8455 39.001H30.5794L32.6168 25.6543L30.5794 13.001H47.224C49.6182 13.001 51.4599 13.5672 52.7491 14.6996C54.0614 15.809 54.7175 17.3458 54.7175 19.3103C54.7175 20.3503 54.4642 21.3672 53.9578 22.361C53.4743 23.3316 52.6801 24.1636 51.575 24.857C50.493 25.5272 49.0312 25.9432 47.1894 26.105ZM35.1722 37.7183L33.411 35.3263H47.3276C48.7549 35.3263 49.8599 35.0027 50.6427 34.3556C51.4484 33.6854 51.8513 32.7378 51.8513 31.513C51.8513 30.2187 51.3794 29.2134 50.4355 28.497C49.5146 27.7805 48.1448 27.4223 46.3261 27.4223H35.1031V23.8863H45.8772C47.0973 23.8863 48.1103 23.5512 48.916 22.881C49.7218 22.1876 50.1247 21.2054 50.1247 19.9343C50.1247 18.9867 49.7909 18.2125 49.1232 17.6116C48.4556 16.9876 47.4887 16.6756 46.2225 16.6756H33.411L35.1722 14.2836L37.0024 25.6543L35.1722 37.7183ZM62.1263 33.0383V29.2596H80.2212V33.0383H62.1263ZM74.1435 13.001L86.5752 39.001H81.7061L70.414 14.7343H72.1752L60.8831 39.001H56.014L68.4457 13.001H74.1435ZM92.7756 15.1156H97.3339V39.001H92.7756V15.1156ZM82.0706 13.001H108.039V17.0223H82.0706V13.001ZM116.246 30.5423H120.874C121.012 31.5823 121.438 32.4952 122.151 33.281C122.888 34.0667 123.855 34.6792 125.052 35.1183C126.249 35.5343 127.631 35.7423 129.196 35.7423C131.521 35.7423 133.363 35.3841 134.721 34.6676C136.079 33.9281 136.759 32.9343 136.759 31.6863C136.759 30.6694 136.367 29.9067 135.585 29.3983C134.802 28.8898 133.386 28.5085 131.337 28.2543L125.743 27.5263C122.612 27.1103 120.333 26.3361 118.905 25.2036C117.501 24.0481 116.799 22.4187 116.799 20.3156C116.799 18.721 117.271 17.3458 118.215 16.1903C119.182 15.0116 120.54 14.1103 122.29 13.4863C124.039 12.8392 126.088 12.5156 128.436 12.5156C130.762 12.5156 132.822 12.8623 134.618 13.5556C136.413 14.249 137.841 15.2196 138.9 16.4676C139.982 17.6925 140.569 19.137 140.661 20.801H136.033C135.918 19.8765 135.527 19.0792 134.859 18.409C134.215 17.7387 133.34 17.2187 132.235 16.849C131.13 16.4561 129.829 16.2596 128.333 16.2596C126.215 16.2596 124.523 16.6063 123.256 17.2996C121.99 17.993 121.357 18.9405 121.357 20.1423C121.357 21.0667 121.726 21.7832 122.462 22.2916C123.222 22.777 124.534 23.1467 126.399 23.401L132.062 24.1983C134.387 24.5218 136.218 24.961 137.553 25.5156C138.911 26.0472 139.878 26.7752 140.454 27.6996C141.029 28.601 141.317 29.7681 141.317 31.201C141.317 32.865 140.81 34.321 139.797 35.569C138.785 36.817 137.357 37.7876 135.515 38.481C133.697 39.1512 131.567 39.4863 129.127 39.4863C126.641 39.4863 124.442 39.1165 122.531 38.377C120.644 37.6143 119.147 36.5627 118.042 35.2223C116.937 33.8819 116.338 32.3218 116.246 30.5423ZM148.974 27.8383C148.974 29.3867 149.285 30.7272 149.907 31.8596C150.528 32.9921 151.414 33.8703 152.566 34.4943C153.74 35.0952 155.132 35.3956 156.744 35.3956C158.378 35.3956 159.771 35.0952 160.922 34.4943C162.073 33.8703 162.96 32.9921 163.581 31.8596C164.203 30.7272 164.514 29.3867 164.514 27.8383V13.001H169.072V28.0116C169.072 30.2996 168.554 32.3103 167.518 34.0436C166.482 35.7539 165.043 37.0943 163.202 38.065C161.36 39.0125 159.207 39.4863 156.744 39.4863C154.304 39.4863 152.151 39.0125 150.286 38.065C148.445 37.0943 147.006 35.7539 145.97 34.0436C144.934 32.3103 144.416 30.2996 144.416 28.0116V13.001H148.974V27.8383ZM194.429 24.0943V27.9076H176.334V24.0943H194.429ZM179.338 26.001L177.508 37.6143L175.332 35.049H195.43V39.001H172.846L174.918 26.001L172.846 13.001H195.258V16.953H175.332L177.508 14.3876L179.338 26.001Z" fill="#9E6934"/>
<path d="M96.5361 39.1974V32.0681L99.1993 29.3945H106.301V36.5239L103.638 39.1974H96.5361Z" fill="white"/>
<path d="M96.5361 32.0681V39.1974H103.638M96.5361 32.0681H103.638M96.5361 32.0681L99.1993 29.3945H106.301M103.638 39.1974V32.0681M103.638 39.1974L106.301 36.5239V29.3945M103.638 32.0681L106.301 29.3945" stroke="#835930" stroke-linejoin="round"/>
<path d="M106.053 38.357L107.891 31.4706L111.152 29.5801L118.012 31.4254L116.174 38.3117L112.912 40.2022L106.053 38.357Z" fill="white"/>
<path d="M107.891 31.4706L106.053 38.357L112.912 40.2022M107.891 31.4706L114.75 33.3158M107.891 31.4706L111.152 29.5801L118.012 31.4254M112.912 40.2022L114.75 33.3158M112.912 40.2022L116.174 38.3117L118.012 31.4254M114.75 33.3158L118.012 31.4254" stroke="#835930" stroke-linejoin="round"/>
</svg>
